<?xml version="1.0" standalone="no"?>
<!DOCTYPE svg PUBLIC "-//W3C//DTD SVG 20010904//EN"
 "http://www.w3.org/TR/2001/REC-SVG-20010904/DTD/svg10.dtd">
<svg version="1.0" xmlns="http://www.w3.org/2000/svg"
 width="348.000000pt" height="184.000000pt" viewBox="0 0 348.000000 184.000000"
 preserveAspectRatio="xMidYMid meet">

<g transform="translate(0.000000,184.000000) scale(0.100000,-0.100000)"
fill="#000000" stroke="none">
<path d="M182 1821 c-63 -22 -114 -68 -150 -136 l-27 -50 -3 -452 -3 -453 808
0 807 0 28 27 28 27 28 -27 28 -27 877 0 878 0 -3 453 -3 452 -27 51 c-14 27
-45 67 -67 87 -79 71 24 67 -1645 67 -1430 -1 -1504 -2 -1554 -19z m1567 -361
c19 -5 38 -15 43 -22 12 -20 9 -64 -5 -77 -11 -8 -18 -2 -33 27 -27 50 -79 65
-132 37 -47 -26 -62 -65 -40 -102 9 -15 50 -48 91 -73 130 -78 167 -127 145
-192 -26 -78 -80 -103 -200 -95 -97 6 -110 16 -106 75 4 57 20 64 37 16 30
-83 181 -86 210 -3 15 44 -7 80 -74 121 -128 76 -175 123 -175 174 0 32 42 87
80 106 39 19 108 23 159 8z m-462 -105 c18 -55 47 -138 64 -185 17 -47 37
-104 45 -127 9 -24 21 -43 27 -43 7 0 19 -5 27 -10 25 -17 -7 -30 -75 -30 -68
0 -100 13 -75 30 8 5 21 10 28 10 14 0 8 36 -12 80 -11 24 -15 25 -105 25
l-93 0 -19 -48 -19 -48 25 -9 c56 -21 15 -44 -71 -38 -35 2 -49 7 -49 18 0 8
9 16 20 18 21 3 25 11 151 360 37 101 38 103 67 100 28 -3 32 -9 64 -103z
m771 93 c-3 -7 -14 -14 -26 -16 -21 -3 -22 -8 -22 -103 l0 -99 125 0 125 0 0
88 c0 94 -5 108 -34 113 -11 2 -21 10 -24 17 -3 9 18 12 82 12 87 0 110 -11
61 -30 l-25 -10 0 -209 0 -210 23 -3 c12 -2 22 -10 22 -18 0 -12 -15 -15 -79
-15 -85 0 -110 15 -56 33 l31 11 -3 88 -3 88 -122 3 -123 3 0 -95 c0 -92 0
-94 26 -100 44 -12 21 -31 -41 -34 -97 -5 -138 15 -75 37 l30 10 -2 208 -3
207 -24 6 c-14 3 -26 11 -29 18 -3 9 19 12 83 12 65 0 86 -3 83 -12z"/>
<path d="M1172 1273 c-45 -137 -46 -133 38 -133 48 0 72 4 75 13 6 16 -59 210
-72 214 -5 2 -24 -40 -41 -94z"/>
<path d="M0 472 l0 -249 33 -64 c37 -74 104 -131 173 -148 60 -15 3008 -15
3068 0 63 16 136 75 171 139 l30 55 3 258 3 257 -877 0 -878 0 -28 -27 -28
-27 -28 27 -28 27 -807 0 -807 0 0 -248z m480 52 c0 -8 -7 -14 -15 -14 -15 0
-21 21 -9 33 10 9 24 -2 24 -19z m2800 0 c0 -8 -9 -14 -20 -14 -22 0 -28 26
-7 33 16 6 27 -1 27 -19z m-2910 -104 c0 -102 2 -120 16 -120 8 0 13 -4 10 -8
-3 -5 -34 -9 -70 -10 -59 0 -68 2 -86 25 -28 36 -26 93 5 127 13 14 33 26 44
26 50 0 70 38 34 66 -16 12 -15 13 15 14 l32 0 0 -120z m360 75 c0 -45 1 -45
28 -38 70 18 85 3 90 -87 2 -39 9 -70 14 -70 5 0 6 -4 3 -10 -3 -5 -19 -10
-36 -10 -16 0 -29 5 -29 10 0 6 5 10 10 10 13 0 13 96 0 121 -11 19 -35 24
-64 13 -12 -5 -16 -21 -16 -70 0 -36 4 -64 10 -64 6 0 10 -4 10 -10 0 -5 -16
-10 -35 -10 -19 0 -35 5 -35 10 0 6 5 10 10 10 6 0 10 43 10 110 0 67 -4 110
-10 110 -5 0 -10 5 -10 10 0 6 11 10 25 10 23 0 25 -4 25 -45z m1060 -75 c0
-73 4 -120 10 -120 6 0 10 -4 10 -10 0 -5 -16 -10 -35 -10 -19 0 -35 5 -35 10
0 6 5 10 10 10 6 0 10 43 10 110 0 67 -4 110 -10 110 -5 0 -10 5 -10 10 0 6
11 10 25 10 l25 0 0 -120z m930 75 c0 -45 1 -45 28 -38 34 8 62 7 74 -5 5 -5
12 -41 15 -80 3 -40 10 -72 15 -72 5 0 6 -4 3 -10 -7 -11 -75 -14 -75 -4 0 4
7 12 16 19 14 10 15 22 10 68 -8 63 -25 81 -63 66 -21 -7 -23 -15 -23 -74 0
-37 4 -65 10 -65 6 0 10 -4 10 -10 0 -5 -16 -10 -35 -10 -19 0 -35 5 -35 10 0
6 5 10 10 10 6 0 10 43 10 110 0 67 -4 110 -10 110 -5 0 -10 5 -10 10 0 6 11
10 25 10 23 0 25 -4 25 -45z m-790 -34 l25 -4 -25 -6 c-24 -7 -25 -11 -25 -76
0 -65 2 -70 23 -73 28 -4 19 -22 -12 -22 -36 0 -46 19 -46 90 0 38 -5 71 -12
78 -7 7 -8 12 -2 12 6 0 17 12 24 28 l13 27 6 -25 c5 -16 15 -26 31 -29z
m-1337 19 c3 -12 14 -20 29 -21 20 -1 21 -2 3 -6 -28 -7 -35 -21 -35 -78 0
-58 11 -81 35 -71 11 4 15 2 13 -6 -7 -21 -50 -22 -65 -2 -7 10 -13 45 -13 80
0 36 -5 66 -11 70 -8 5 -6 10 5 16 9 5 16 16 16 23 0 22 17 18 23 -5z m-435
-32 c7 -7 12 -36 12 -79 0 -39 4 -69 10 -69 6 0 10 -4 10 -8 0 -13 -123 -12
-138 0 -6 6 -12 22 -12 37 0 29 41 61 79 61 14 0 21 6 21 20 0 25 -33 42 -67
34 -19 -5 -25 -3 -18 4 22 22 75 22 103 0z m1050 -6 c6 -9 12 -44 12 -79 0
-35 4 -63 10 -63 6 0 10 -4 10 -8 0 -13 -123 -12 -137 0 -35 29 10 98 63 98
28 0 32 21 9 44 -11 11 -26 13 -48 9 -22 -4 -29 -2 -22 5 24 25 81 22 103 -6z
m900 0 c7 -9 12 -43 12 -79 0 -41 4 -63 12 -63 6 0 8 -3 4 -7 -12 -12 -119
-13 -133 -1 -7 6 -13 23 -13 39 0 21 7 32 30 44 16 8 38 15 50 15 11 0 20 6
20 13 0 27 -20 41 -54 40 -41 -1 -46 4 -13 16 28 12 68 3 85 -17z m210 12 c19
-13 22 -24 22 -85 0 -39 4 -69 10 -69 6 0 10 -4 10 -10 0 -5 -16 -10 -35 -10
-19 0 -35 5 -35 10 0 6 5 10 10 10 6 0 10 28 10 64 0 56 -3 66 -20 71 -11 3
-29 3 -40 0 -17 -5 -20 -15 -20 -71 0 -38 4 -64 11 -64 5 0 7 -4 4 -10 -8 -13
-65 -13 -65 -1 0 6 5 13 10 16 6 3 10 33 10 66 0 33 -4 59 -10 59 -5 0 -10 7
-10 16 0 13 7 15 33 11 17 -3 41 -2 52 3 28 12 28 12 53 -6z m201 -13 c5 -9
10 -48 13 -87 l4 -71 -56 -1 c-64 0 -80 9 -80 49 0 21 7 32 30 44 16 8 38 15
50 15 24 0 26 22 5 44 -11 11 -26 13 -48 9 -22 -4 -29 -2 -22 5 23 24 90 20
104 -7z m488 7 c13 -10 19 -39 26 -119 l4 -46 -61 0 c-68 -1 -86 8 -86 43 0
26 49 64 83 64 23 0 23 36 -1 49 -9 5 -31 7 -47 4 -20 -4 -27 -2 -20 5 22 22
75 22 102 0z m188 3 c-2 -5 -18 -11 -35 -14 -30 -6 -30 -7 -30 -72 0 -58 2
-65 20 -65 11 0 20 -4 20 -10 0 -5 -20 -10 -45 -10 -25 0 -45 5 -45 10 0 6 5
10 11 10 8 0 10 25 7 81 l-5 81 26 -5 c14 -3 35 -1 46 3 22 8 38 3 30 -9z
m-2715 -66 c0 -58 4 -77 15 -81 8 -4 12 -10 9 -15 -7 -12 -61 -11 -69 1 -3 6
-1 10 5 10 9 0 11 24 8 80 -3 71 -1 80 14 80 16 0 18 -10 18 -75z m470 60 c-9
-11 -8 -24 6 -62 9 -26 21 -52 24 -56 4 -5 16 16 25 47 14 45 15 59 5 71 -11
13 -7 15 25 15 29 0 35 -3 27 -13 -6 -7 -23 -46 -37 -87 -15 -41 -34 -90 -42
-108 -18 -38 -50 -59 -66 -43 -7 7 -2 14 16 22 15 7 29 19 32 28 6 19 -49 157
-72 183 -15 17 -14 18 27 18 36 0 41 -2 30 -15z m530 -7 c0 -20 -1 -20 -19 -4
-24 22 -56 17 -56 -9 0 -12 14 -26 38 -39 45 -24 57 -58 32 -86 -25 -28 -90
-27 -105 0 -11 21 -1 27 17 9 6 -6 23 -9 39 -7 43 5 38 37 -9 62 -70 37 -59
96 19 96 38 0 44 -3 44 -22z m92 -49 c2 -55 7 -74 21 -83 12 -8 22 -8 35 0 13
9 17 26 17 83 0 60 3 71 17 71 14 0 17 -14 20 -87 2 -49 2 -90 0 -93 -2 -2
-11 1 -21 7 -11 7 -23 8 -32 2 -23 -14 -55 -10 -72 9 -10 11 -16 42 -19 90 -3
63 -1 72 14 72 14 0 18 -12 20 -71z m1708 -9 c0 -47 4 -80 10 -80 6 0 10 -4
10 -10 0 -5 -16 -10 -35 -10 -19 0 -35 5 -35 10 0 6 5 10 11 10 8 0 10 25 7
80 -4 73 -3 80 14 80 16 0 18 -9 18 -80z"/>
<path d="M266 428 c-36 -50 -4 -133 47 -126 20 3 22 10 25 76 l3 72 -30 0
c-20 0 -35 -8 -45 -22z"/>
<path d="M80 355 c-20 -25 -8 -50 25 -50 27 0 30 4 33 33 3 28 0 32 -21 32
-14 0 -30 -7 -37 -15z"/>
<path d="M1132 358 c-20 -20 -14 -47 12 -54 34 -8 46 2 46 37 0 24 -4 29 -23
29 -13 0 -28 -5 -35 -12z"/>
<path d="M2030 355 c-18 -21 -8 -50 19 -53 26 -4 41 12 41 46 0 17 -6 22 -24
22 -13 0 -29 -7 -36 -15z"/>
<path d="M2443 363 c-16 -6 -17 -49 -2 -58 5 -4 21 -4 35 -1 19 5 24 13 24 36
0 25 -4 30 -22 29 -13 0 -29 -3 -35 -6z"/>
<path d="M2934 356 c-15 -12 -17 -18 -8 -33 23 -38 74 -22 74 23 0 18 -5 24
-23 24 -13 0 -32 -6 -43 -14z"/>
</g>
</svg>
